<?xml version="1.0" encoding="UTF-8"?>
<!-- Generator: visioncortex VTracer 0.6.5 -->
<svg version="1.1" xmlns="http://www.w3.org/2000/svg" width="512" height="512">
<path d="M0 0 C0.86 -0.01 1.71 -0.01 2.59 -0.02 C3.06 -0.02 3.06 -0.02 5.45 -0.01 C5.95 -0.01 5.95 -0.01 8.47 -0.02 C11.84 -0.04 15.21 -0.03 18.57 -0.03 C20.98 -0.04 23.39 -0.05 25.8 -0.05 C31.68 -0.07 37.56 -0.08 43.43 -0.08 C48.23 -0.08 53.02 -0.08 57.81 -0.09 C71.43 -0.11 85.05 -0.12 98.67 -0.11 C99.4 -0.11 100.14 -0.11 100.89 -0.11 C101.63 -0.11 102.36 -0.11 103.12 -0.11 C114.98 -0.11 126.84 -0.13 138.69 -0.16 C150.9 -0.19 163.11 -0.2 175.32 -0.2 C182.16 -0.2 189 -0.21 195.84 -0.23 C202.3 -0.25 208.76 -0.25 215.21 -0.23 C217.56 -0.23 219.91 -0.23 222.26 -0.25 C284.15 -0.55 343.31 21.49 389.82 62.26 C390.65 62.97 391.48 63.69 392.33 64.43 C404.19 74.86 415.17 85.95 424.6 98.64 C425.75 100.16 426.93 101.67 428.11 103.17 C460.42 144.67 476.83 197.1 478.82 249.26 C478.84 249.8 478.84 249.8 478.95 252.53 C480.05 312.05 459.34 370.23 421.82 416.26 C421.37 416.81 420.92 417.36 420.46 417.93 C409.51 431.29 397.52 443.7 383.82 454.26 C382.54 455.27 381.27 456.29 380 457.3 C338.49 490.1 284.12 512.38 230.76 512.41 C229.8 512.42 228.84 512.42 227.85 512.42 C224.65 512.44 221.46 512.44 218.27 512.45 C215.97 512.46 213.67 512.47 211.37 512.47 C203.84 512.5 196.32 512.52 188.8 512.53 C186.2 512.54 183.61 512.54 181.02 512.55 C170.24 512.57 159.46 512.59 148.68 512.6 C145.89 512.6 143.1 512.6 140.31 512.61 C139.62 512.61 138.92 512.61 138.21 512.61 C126.95 512.62 115.7 512.66 104.45 512.7 C92.88 512.74 81.31 512.76 69.74 512.77 C63.25 512.77 56.76 512.78 50.27 512.82 C44.18 512.85 38.08 512.85 31.99 512.84 C29.75 512.84 27.51 512.85 25.27 512.87 C22.22 512.89 19.17 512.88 16.12 512.87 C15.23 512.88 14.33 512.89 13.41 512.91 C7.44 512.83 7.44 512.83 4.28 509.9 C2.4 506.49 1.99 505.09 2.82 501.26 C7.98 494.13 14.84 488.11 21.06 481.92 C22.18 480.8 23.31 479.68 24.43 478.56 C26.83 476.16 29.24 473.76 31.64 471.36 C35.46 467.56 39.26 463.76 43.07 459.96 C51.84 451.2 60.61 442.45 69.38 433.7 C77.42 425.68 85.47 417.65 93.51 409.62 C97.29 405.85 101.07 402.08 104.85 398.31 C107.21 395.96 109.56 393.61 111.92 391.25 C113.01 390.17 114.09 389.08 115.18 388 C120.45 382.76 125.64 377.5 130.45 371.83 C132.2 369.82 134.1 368.05 136.13 366.32 C136.79 365.75 137.45 365.19 138.12 364.6 C141.82 361.67 145.38 362.11 149.9 362.12 C150.74 362.11 151.57 362.11 152.43 362.1 C154.26 362.1 156.08 362.09 157.9 362.09 C160.81 362.08 163.71 362.07 166.62 362.05 C174.88 361.99 183.14 361.95 191.4 361.93 C196.45 361.92 201.5 361.89 206.56 361.85 C208.47 361.84 210.38 361.83 212.28 361.83 C244.88 361.86 274.01 352.12 297.63 328.82 C317.54 308.59 327.27 282.08 327.12 253.9 C326.53 226.9 315.91 203.05 297.82 183.26 C297.15 182.51 296.48 181.76 295.8 180.98 C279.15 163.21 252.4 151.92 228.23 151.04 C222.74 150.91 217.24 150.88 211.74 150.84 C209.72 150.82 207.7 150.8 205.67 150.78 C200.39 150.73 195.1 150.69 189.81 150.66 C184.4 150.62 178.99 150.57 173.58 150.52 C162.99 150.42 152.41 150.33 141.82 150.26 C141.82 151.51 141.83 152.77 141.83 154.06 C141.87 165.9 141.9 177.73 141.92 189.56 C141.93 195.64 141.95 201.72 141.97 207.8 C141.99 213.67 142 219.54 142.01 225.41 C142.01 227.65 142.02 229.89 142.03 232.13 C142.05 235.26 142.05 238.4 142.05 241.53 C142.05 242.46 142.06 243.39 142.07 244.35 C142.07 245.21 142.06 246.06 142.06 246.94 C142.06 247.68 142.06 248.42 142.07 249.19 C141.77 251.66 141.2 253.18 139.82 255.26 C136.66 257.46 133.88 257.51 130.1 257.52 C129.51 257.53 129.51 257.53 126.56 257.55 C125.28 257.55 124 257.55 122.69 257.55 C121.32 257.55 119.96 257.56 118.6 257.57 C114.9 257.59 111.21 257.59 107.51 257.59 C105.2 257.59 102.89 257.6 100.58 257.6 C92.52 257.62 84.46 257.63 76.41 257.63 C68.9 257.63 61.38 257.65 53.87 257.68 C47.42 257.71 40.97 257.72 34.52 257.71 C30.67 257.71 26.82 257.72 22.97 257.74 C19.35 257.76 15.72 257.76 12.1 257.75 C10.14 257.74 8.18 257.76 6.22 257.78 C5.63 257.77 5.63 257.77 2.67 257.75 C1.66 257.75 0.64 257.75 -0.4 257.76 C-3.95 257.12 -5.63 255.76 -8.18 253.26 C-9.09 250.52 -9.31 248.92 -9.31 246.11 C-9.31 245.26 -9.31 244.41 -9.32 243.53 C-9.32 242.6 -9.31 241.67 -9.31 240.7 C-9.32 239.71 -9.32 238.72 -9.32 237.7 C-9.33 234.36 -9.33 231.03 -9.32 227.69 C-9.33 225.3 -9.33 222.92 -9.34 220.53 C-9.34 214.71 -9.35 208.89 -9.35 203.07 C-9.35 198.35 -9.35 193.62 -9.35 188.89 C-9.36 175.48 -9.37 162.08 -9.37 148.68 C-9.37 147.95 -9.36 147.23 -9.36 146.48 C-9.36 145.76 -9.36 145.04 -9.36 144.29 C-9.36 132.56 -9.37 120.83 -9.39 109.1 C-9.4 97.06 -9.41 85.02 -9.41 72.98 C-9.41 66.22 -9.41 59.46 -9.42 52.7 C-9.43 46.34 -9.43 39.98 -9.42 33.62 C-9.42 31.29 -9.43 28.95 -9.43 26.62 C-9.44 23.43 -9.43 20.25 -9.43 17.06 C-9.43 16.13 -9.44 15.21 -9.44 14.25 C-9.4 6.07 -9.4 6.07 -7.18 2.26 C-4.1 0.2 -3.47 0.01 0 0 Z " fill="#000000" transform="translate(21.17965602874756,-0.25726890563964844)"/>
</svg>
